<?xml version="1.0" standalone="no"?>
<!DOCTYPE svg PUBLIC "-//W3C//DTD SVG 20010904//EN"
 "http://www.w3.org/TR/2001/REC-SVG-20010904/DTD/svg10.dtd">
<svg version="1.0" xmlns="http://www.w3.org/2000/svg"
 width="294.000000pt" height="294.000000pt" viewBox="0 0 294.000000 294.000000"
 preserveAspectRatio="xMidYMid meet">
<metadata>
Created by potrace 1.16, written by Peter Selinger 2001-2019
</metadata>
<g transform="translate(0.000000,294.000000) scale(0.100000,-0.100000)"
fill="#000000" stroke="none">
<path d="M1242 2729 c-76 -13 -362 -132 -469 -194 -116 -69 -280 -266 -343
-413 -16 -37 -38 -115 -50 -172 -20 -99 -23 -105 -75 -164 -66 -74 -149 -237
-177 -351 -30 -118 -22 -195 35 -321 25 -54 48 -110 52 -124 14 -48 84 -175
122 -222 21 -25 64 -78 96 -118 33 -39 78 -85 100 -102 91 -67 271 -134 436
-163 74 -13 100 -22 134 -48 87 -66 135 -79 327 -91 257 -15 300 -12 430 29
61 19 116 35 122 35 26 0 169 66 229 106 205 136 351 319 410 514 12 41 42
109 65 150 71 123 88 179 88 295 -1 183 -90 435 -237 669 -143 229 -240 330
-414 432 -54 31 -120 71 -148 89 -73 46 -148 75 -244 95 -47 10 -131 29 -186
43 -117 30 -228 40 -303 26z m535 -344 c114 -19 240 -57 318 -99 77 -40 206
-168 272 -270 66 -100 128 -241 148 -337 35 -162 13 -430 -42 -513 -42 -64
-280 -303 -366 -367 -94 -70 -220 -140 -302 -167 -33 -11 -115 -32 -182 -46
-117 -25 -125 -25 -200 -11 -285 52 -358 69 -440 96 -146 50 -192 99 -368 388
-137 224 -205 427 -205 613 0 97 27 144 147 261 170 164 211 196 343 262 162
81 236 109 375 146 221 58 349 69 502 44z"/>
</g>
</svg>
